<svg width="24" height="24" viewBox="0 0 24 24" fill="none" xmlns="http://www.w3.org/2000/svg">
<path d="M4.03966 18.75H14.1544C14.0841 20.106 13.2102 20.97 12.0051 20.97C10.7897 20.97 9.92566 20.106 9.84509 18.75H8.27823C8.35881 20.6786 9.87552 22.3758 12.0051 22.3758C14.1244 22.3758 15.6411 20.6786 15.7217 18.75H19.9602C20.9147 18.75 21.4774 18.258 21.4774 17.5346C21.4774 16.53 20.4625 15.6262 19.5887 14.7322C18.9257 14.0392 18.7448 12.6129 18.6745 11.4579C18.5944 7.50004 17.5799 4.93847 14.8979 3.97419C14.5662 2.66876 13.4815 1.6239 12.0051 1.6239C10.5179 1.6239 9.44352 2.66876 9.10195 3.97419C6.43024 4.93847 5.40552 7.50004 5.33524 11.4575C5.25509 12.6129 5.08409 14.0392 4.41123 14.7322C3.54724 15.6262 2.52295 16.53 2.52295 17.535C2.52295 18.258 3.09552 18.75 4.03966 18.75ZM4.48152 17.2329V17.1129C4.66238 16.8116 5.25509 16.2288 5.78738 15.636C6.50052 14.8325 6.84166 13.5468 6.93252 11.5783C7.01266 7.19833 8.31852 5.79262 10.0461 5.33062C10.2972 5.27019 10.4279 5.13947 10.4378 4.88833C10.4781 3.83404 11.0708 3.10033 12.0051 3.10033C12.9291 3.10033 13.5317 3.83362 13.5621 4.88833C13.5719 5.13947 13.7125 5.26976 13.9637 5.33019C15.6814 5.79262 16.9872 7.19876 17.0777 11.5783C17.1578 13.5468 17.4994 14.8325 18.2228 15.636C18.7448 16.2288 19.3474 16.8116 19.5282 17.1129V17.2329H4.48152Z" fill="black"/>
</svg>
