<svg width="42" height="37" viewBox="0 0 42 37" fill="none" xmlns="http://www.w3.org/2000/svg">
<g clip-path="url(#clip0_1_252)">
<g filter="url(#filter0_i_1_252)">
<path d="M41.4272 12.6931C41.6833 12.8472 41.8369 15.1597 41.7857 17.832C41.6833 21.8403 41.5296 22.6625 40.8125 22.9195C40.3004 23.125 39.4808 23.0222 39.0199 22.6625C38.3028 22.2514 37.3296 22.3028 34.9223 22.9195C33.1296 23.3306 30.8247 23.8959 29.8004 24.2042C28.4686 24.5125 27.854 24.975 27.854 25.5403C27.854 26.0542 27.5467 27.3903 27.1882 28.4695C26.8808 29.6 25.754 31.45 24.7296 32.5806C23.7052 33.7625 21.9125 35.2014 20.7345 35.8181C19.1979 36.6917 17.7638 37 15.5613 37C13.3589 37 11.9247 36.6917 10.3882 35.8181C9.21011 35.2014 7.41742 33.7625 6.39303 32.5806C5.36864 31.45 4.24181 29.5486 3.9345 28.3667C3.4223 26.7222 2.96132 26.157 1.98815 25.9514C1.13449 25.7801 0.622299 25.2662 0.451569 24.4097C0.297909 23.6903 0.502789 22.7653 0.861324 22.3542C1.16864 21.8917 1.93693 21.532 2.50035 21.5834C3.18327 21.6176 3.78083 21.0695 4.29303 19.9389C4.70279 19.0139 5.72718 17.4722 6.59791 16.4959C7.41742 15.5709 9.05645 14.2861 10.1833 13.7209C11.4638 13.0528 13.7174 12.5389 16.176 12.3847L20.1199 12.0764C20.4272 18.0889 20.4784 18.2431 21.7077 18.2431C22.8857 18.2431 22.9882 18.0375 23.1418 15.2625L23.2443 12.3334C37.0223 12.3334 41.1711 12.4875 41.4272 12.6931Z" fill="#A4BBDB"/>
</g>
<path d="M13.922 7.96526C14.0245 7.24582 13.0513 5.85832 10.5928 3.44304C8.23668 1.07915 6.80254 -1.39698e-05 6.08546 0.102764C5.52205 0.205542 5.00985 0.719431 4.90741 1.28471C4.80497 1.95276 5.88058 3.44304 8.23668 5.80693C10.644 8.22221 12.0269 9.24999 12.744 9.14721C13.3074 9.04443 13.8196 8.53054 13.922 7.96526Z" fill="#ED6A5A"/>
<path d="M19.4035 5.13885C18.8913 3.59718 18.3791 2.15829 18.2767 1.90135C18.1742 1.69579 17.6108 1.54163 17.0986 1.54163C16.5352 1.54163 15.9206 1.84996 15.7669 2.15829C15.6133 2.51801 15.9206 4.21385 16.4328 5.90968C17.2011 8.32496 17.662 9.0444 18.5328 9.09579C19.1474 9.19857 19.8133 8.94163 19.9669 8.5819C20.1206 8.27357 19.8645 6.68051 19.4035 5.13885Z" fill="#01A647"/>
</g>
<defs>
<filter id="filter0_i_1_252" x="0.399902" y="12.0764" width="41.3956" height="24.9236" filterUnits="userSpaceOnUse" color-interpolation-filters="sRGB">
<feFlood flood-opacity="0" result="BackgroundImageFix"/>
<feBlend mode="normal" in="SourceGraphic" in2="BackgroundImageFix" result="shape"/>
<feColorMatrix in="SourceAlpha" type="matrix" values="0 0 0 0 0 0 0 0 0 0 0 0 0 0 0 0 0 0 127 0" result="hardAlpha"/>
<feOffset dy="4"/>
<feComposite in2="hardAlpha" operator="arithmetic" k2="-1" k3="1"/>
<feColorMatrix type="matrix" values="0 0 0 0 0.913725 0 0 0 0 0.952941 0 0 0 0 0.988235 0 0 0 1 0"/>
<feBlend mode="normal" in2="shape" result="effect1_innerShadow_1_252"/>
</filter>
<clipPath id="clip0_1_252">
<rect width="42" height="37" fill="white"/>
</clipPath>
</defs>
</svg>
