<svg width="24" height="24" viewBox="0 0 24 24" fill="none" xmlns="http://www.w3.org/2000/svg">
<path d="M4.03972 18.534H19.9603C20.9147 18.534 21.4774 18.042 21.4774 17.3186C21.4774 16.314 20.4626 15.4101 19.5887 14.5161C18.9257 13.8231 18.7449 12.3968 18.6746 11.2418C18.5944 7.38469 17.58 4.72284 14.898 3.75855C14.5264 2.45269 13.4816 1.40784 12.0051 1.40784C10.518 1.40784 9.48386 2.45269 9.102 3.75855C6.43029 4.72284 5.40557 7.38426 5.33529 11.2414C5.25515 12.3968 5.08415 13.8231 4.41129 14.5161C3.54729 15.4101 2.523 16.314 2.523 17.319C2.523 18.042 3.09557 18.534 4.03972 18.534ZM8.94129 19.9003C9.06215 21.3668 10.2973 22.5917 12.0051 22.5917C13.7023 22.5917 14.9379 21.3668 15.0686 19.9003H8.94129Z" fill="#00B2FF"/>
</svg>
